<?xml version="1.0" encoding="utf-8"?>
<!-- Generator: Adobe Illustrator 20.1.0, SVG Export Plug-In . SVG Version: 6.00 Build 0)  -->
<svg version="1.1" id="Layer_1" xmlns="http://www.w3.org/2000/svg" xmlns:xlink="http://www.w3.org/1999/xlink" x="0px" y="0px"
	 viewBox="0 0 234 76.8" style="enable-background:new 0 0 234 76.8;" xml:space="preserve">
<style type="text/css">
	.st0{fill:#002855;}
	.st1{fill:#CEDC00;}
	.st2{fill:#0082CA;}
	.st3{fill:#E63323;}
	.st4{fill:#05BEC8;}
</style>
<title>Asset 4</title>
<g>
	<g>
		<path class="st0" d="M9.8,50.4c0.8,0,1.5,0.2,2.1,0.6c1.4,0.8,2,2.3,2,4c0,1.6-0.6,3.2-2,4c-0.6,0.4-1.4,0.6-2.1,0.6H6v-9.1H9.8z
			 M7.4,51.5v6.9h2c0.8,0,1.6-0.3,2.1-0.8c0.6-0.6,0.9-1.5,0.9-2.7c0-1.3-0.4-2.3-1.2-2.9c-0.5-0.4-1.2-0.5-1.8-0.5H7.4z"/>
		<path class="st0" d="M16.5,56.6c0,1.3,1,1.9,2.4,1.9c0.8,0,1.7-0.2,2.3-0.5l0.2,1c-0.7,0.3-1.6,0.6-2.7,0.6
			c-2.4,0-3.7-1.3-3.7-3.4c0-2.1,1.3-3.5,3.5-3.5c2,0,3.2,1.3,3.2,3.3c0,0.3,0,0.7,0,0.7H16.5z M16.6,55.6h3.9c0-1.1-0.5-2-1.8-2
			C17.5,53.7,16.8,54.2,16.6,55.6"/>
		<path class="st0" d="M27.2,52.7h2.3v0.9l-1.1,0c0.3,0.2,0.6,0.7,0.6,1.4c0,1.3-1,2.1-3,2.1c-0.6,0-1.1-0.1-1.5-0.2
			c-0.2,0.1-0.4,0.3-0.4,0.6c0,0.6,0.7,0.7,1.7,0.7h1c1.3,0,2.4,0.4,2.4,1.7c0,1.6-1.6,2-3.3,2c-1.6,0-3.2-0.3-3.2-1.7
			c0-0.6,0.3-1,0.8-1.3c-0.4-0.2-0.6-0.5-0.6-1.1c0-0.6,0.3-1,0.7-1.3c-0.4-0.4-0.6-0.9-0.6-1.6c0-1.5,1.1-2.3,3-2.3
			C26.5,52.6,26.9,52.6,27.2,52.7 M24.7,59.2c-0.3,0.2-0.5,0.4-0.5,0.8c0,0.7,0.8,0.8,1.9,0.8c1,0,1.9-0.1,1.9-0.9
			c0-0.5-0.4-0.7-1.1-0.7h-0.8C25.7,59.2,25.2,59.2,24.7,59.2 M27.9,50.3c-0.2,1.1-0.7,1.5-1.8,1.5c-1.1,0-1.7-0.4-1.8-1.5l0.8-0.1
			c0.1,0.6,0.4,0.9,1,0.9c0.6,0,0.9-0.3,1-0.9L27.9,50.3z M24.5,54.9c0,0.8,0.7,1.2,1.6,1.2c1,0,1.6-0.4,1.6-1.2
			c0-0.8-0.6-1.2-1.6-1.2C25.1,53.7,24.5,54.1,24.5,54.9"/>
		<path class="st0" d="M31.7,56.6c0,1.3,1,1.9,2.4,1.9c0.8,0,1.7-0.2,2.3-0.5l0.2,1c-0.7,0.3-1.6,0.6-2.7,0.6
			c-2.4,0-3.7-1.3-3.7-3.4c0-2.1,1.3-3.5,3.5-3.5c2,0,3.2,1.3,3.2,3.3c0,0.3,0,0.7,0,0.7H31.7z M31.8,55.6h3.9c0-1.1-0.5-2-1.8-2
			C32.7,53.7,31.9,54.2,31.8,55.6"/>
		<path class="st0" d="M41.9,54c-1.4-0.2-2.2,0.9-2.2,2.3v3.1h-1.3v-6.8h1.1l0.1,1.4c0.3-0.7,1-1.6,2.3-1.4L41.9,54z"/>
		<path class="st0" d="M44.6,58c0,0.4,0.2,0.5,0.5,0.5c0.2,0,0.5,0,0.6,0l0,1c-0.3,0.1-0.6,0.1-1.1,0.1c-1,0-1.4-0.4-1.4-1.3V50h1.3
			V58z"/>
		<path class="st0" d="M48.3,59.5h-1.3v-5.8h-0.8v-1h2.2V59.5z M48.3,51c0,0.5-0.3,0.7-0.8,0.7c-0.5,0-0.8-0.2-0.8-0.7
			c0-0.4,0.3-0.7,0.8-0.7C48.1,50.3,48.3,50.5,48.3,51"/>
		<polygon class="st0" points="61.7,59.5 60.2,59.5 60.2,55.5 55.4,55.5 55.4,59.5 54,59.5 54,50.4 55.4,50.4 55.4,54.4 60.2,54.4 
			60.2,50.4 61.7,50.4 		"/>
		<path class="st0" d="M65.3,59.5H64v-5.8h-0.8v-1h2.2V59.5z M65.4,51c0,0.5-0.3,0.7-0.8,0.7c-0.5,0-0.8-0.2-0.8-0.7
			c0-0.4,0.3-0.7,0.8-0.7C65.1,50.3,65.4,50.5,65.4,51"/>
		<path class="st0" d="M72,53.1L71.8,54c-0.3-0.1-1.1-0.4-2-0.4c-1,0-1.4,0.4-1.4,0.9c0,0.7,0.7,0.8,1.7,1.1c1.1,0.3,2.3,0.7,2.3,2
			c0,1.4-1.2,2-2.7,2c-1.1,0-2.1-0.3-2.7-0.6l0.3-0.9c0.4,0.2,1.2,0.5,2.3,0.5c1.1,0,1.5-0.4,1.5-0.9c0-0.7-0.8-0.8-1.8-1.1
			c-1.1-0.3-2.2-0.6-2.2-2c0-1.4,1.1-2,2.6-2C70.5,52.6,71.4,52.8,72,53.1"/>
		<path class="st0" d="M78.4,53.1L78.1,54c-0.3-0.1-1.1-0.4-2-0.4c-1,0-1.4,0.4-1.4,0.9c0,0.7,0.7,0.8,1.7,1.1
			c1.1,0.3,2.3,0.7,2.3,2c0,1.4-1.2,2-2.7,2c-1.1,0-2.1-0.3-2.7-0.6l0.3-0.9c0.4,0.2,1.2,0.5,2.3,0.5c1.1,0,1.5-0.4,1.5-0.9
			c0-0.7-0.8-0.8-1.8-1.1c-1.1-0.3-2.2-0.6-2.2-2c0-1.4,1.1-2,2.6-2C76.8,52.6,77.7,52.8,78.4,53.1"/>
		<path class="st0" d="M81,56.6c0,1.3,1,1.9,2.4,1.9c0.8,0,1.7-0.2,2.3-0.5l0.2,1c-0.7,0.3-1.6,0.6-2.7,0.6c-2.4,0-3.7-1.3-3.7-3.4
			c0-2.1,1.3-3.5,3.5-3.5c2,0,3.2,1.3,3.2,3.3c0,0.3,0,0.7,0,0.7H81z M81,55.6h3.9c0-1.1-0.5-2-1.8-2C82,53.7,81.2,54.2,81,55.6"/>
		<path class="st0" d="M89.3,52.7h1.9v1h-1.9v3.8c0,0.9,0.3,1.1,0.9,1.1c0.3,0,0.8-0.1,1-0.2l0.1,0.9c-0.4,0.1-0.9,0.2-1.4,0.2
			c-1.2,0-1.9-0.5-1.9-2.1v-3.8h-1v-1h1l0.2-2h1.1V52.7z"/>
		<path class="st0" d="M94.1,52.7h1.9v1h-1.9v3.8c0,0.9,0.3,1.1,0.9,1.1c0.3,0,0.8-0.1,1-0.2l0.1,0.9c-0.4,0.1-0.9,0.2-1.4,0.2
			c-1.2,0-1.9-0.5-1.9-2.1v-3.8h-1v-1h1l0.2-2h1.1V52.7z"/>
		<path class="st0" d="M98.8,59.5h-1.3v-5.8h-0.8v-1h2.2V59.5z M98.8,51c0,0.5-0.3,0.7-0.8,0.7c-0.5,0-0.8-0.2-0.8-0.7
			c0-0.4,0.3-0.7,0.8-0.7C98.5,50.3,98.8,50.5,98.8,51"/>
		<path class="st0" d="M104.3,54c-1.4-0.2-2.2,0.9-2.2,2.3v3.1h-1.3v-6.8h1.1l0.1,1.4c0.3-0.7,1-1.6,2.3-1.4L104.3,54z"/>
		<path class="st0" d="M107.1,59.5h-1.3v-5.8h-0.8v-1h2.2V59.5z M107.1,51c0,0.5-0.3,0.7-0.8,0.7c-0.5,0-0.8-0.2-0.8-0.7
			c0-0.4,0.3-0.7,0.8-0.7C106.8,50.3,107.1,50.5,107.1,51"/>
		<path class="st0" d="M112.6,54c-1.4-0.2-2.2,0.9-2.2,2.3v3.1h-1.3v-6.8h1.1l0.1,1.4c0.3-0.7,1-1.6,2.3-1.4L112.6,54z"/>
	</g>
	<g>
		<path class="st1" d="M198.2,15.2l-8.8-5.1l8.8-5.1V15.2z M198.2,15.2l-8.8,5.1l4.4,2.5l4.4-2.5V15.2z"/>
		<path class="st2" d="M198.2,15.2l-8.8,5.1l-8.8-5.1l8.8-5.1L198.2,15.2z"/>
		<polygon class="st3" points="233.4,5.1 224.6,0 224.6,10.2 		"/>
		<path class="st4" d="M198.2,45.7V30.5l8.8,5.1V15.2l-8.8,5.1v-5.1V5.1l35.2,20.3L198.2,45.7z M180.6,5.1v10.2l8.8-5.1L180.6,5.1z
			 M180.6,25.4l8.8-5.1l-8.8-5.1V25.4z M176.7,65.8l-18.3-10.6v21.1L176.7,65.8z"/>
		<path class="st0" d="M92.2,36.7c0-1.7-1-3.2-3-3.2c-2.1,0-3.6,1.1-4,3.2H92.2z M88.9,30.3c4.4,0,7,2.9,7,7.5
			c0,0.8-0.1,1.5-0.1,1.5H85.2c0.2,2.4,2.3,3.5,4.4,3.5c1.4,0,3.2-0.4,4.3-1l1.3,2.8c-1.6,0.9-3.9,1.3-5.7,1.3
			c-5.1,0-8.4-3.2-8.4-7.8C81.1,33.6,84.3,30.3,88.9,30.3 M102.8,24.8v16.9c0,0.8,0.5,1.2,1.4,1.2c0.2,0,0.6-0.1,0.9-0.1v3
			c-0.8,0.1-1.8,0.3-2.7,0.3c-1.8,0-3.5-0.7-3.5-4.1V26.9L102.8,24.8z M118,36.7c0-1.7-1-3.2-3-3.2c-2.1,0-3.6,1.1-4,3.2H118z
			 M114.7,30.3c4.4,0,7.1,2.9,7.1,7.5c0,0.8-0.1,1.5-0.1,1.5H111c0.2,2.4,2.3,3.5,4.4,3.5c1.4,0,3.2-0.4,4.3-1l1.3,2.8
			c-1.6,0.9-3.9,1.3-5.7,1.3c-5.1,0-8.4-3.2-8.4-7.8C106.9,33.6,110.1,30.3,114.7,30.3 M49.5,24.7l0,12.5l5-6.6h4.7l-6,7.1l5.7,8
			h-4.4L51,40.4l-1.5,1.6v3.6h-3.9V26.9L49.5,24.7z M128.5,24.7l0,12.5l5-6.6h4.7l-6,7.1l5.7,8h-4.4l-3.6-5.3l-1.5,1.6v3.6h-3.9
			V26.9L128.5,24.7z M161.4,30.6l0.6,2c0.6-1.3,2.5-2.3,4.2-2.3c1.8,0,3.5,1,4.1,2.7c0.8-1.5,2.4-2.7,4.9-2.7c3.1,0,5.4,1.9,5.4,6.3
			v9.1h-3.9v-9.3c0-1.5-0.6-2.9-2.4-2.9c-1.9,0-2.8,1.5-2.8,3.5v8.7h-3.9v-9.5c0-1.3-0.6-2.7-2.4-2.7c-1.9,0-2.8,1.5-2.8,3.5v8.7
			h-3.9V30.6H161.4z M147.1,29.6c-4.7,0-8.6,3.8-8.6,8.6c0,4.7,3.8,8.6,8.6,8.6c4.7,0,8.6-3.8,8.6-8.6
			C155.7,33.4,151.8,29.6,147.1,29.6z M147.1,43c-2.7,0-4.9-2.2-4.9-4.9c0-2.7,2.2-4.9,4.9-4.9c2.7,0,4.9,2.2,4.9,4.9
			C152,40.8,149.8,43,147.1,43z M82.8,25.4v3.4h-5.1v16.9h-4.1V28.8h-5.1v-3.4H82.8z M37.6,30.6l0,2.2c0.9-1.9,2.4-2.4,5-2.4v3.8
			h-0.5c-2.6,0-4.4,1.3-4.4,4.5v6.9h-3.9V30.6H37.6z M15.1,25.4v3.4H10v16.9H6V28.8H0.9v-3.4H15.1z M26.5,45.7l-0.6-1.8
			c-0.1,0.3-1.2,2.1-4,2.1c-2.5,0-5.5-1.4-5.5-5.7v-7.7h3.9v7.7c0,2,1.1,2.8,2.4,2.8c1.8,0,2.9-1.4,2.9-3.3v-7.2h3.9v13.1H26.5z
			 M17.8,27.2h3.9v3.1h-3.9V27.2z M24.1,27.2H28v3.1h-3.9V27.2z M167.6,25.4V15.2l8.8,5.1L167.6,25.4z M133.6,59.5v-8.6l7.5,4.3
			L133.6,59.5z"/>
		<g>
			<polygon class="st2" points="207,15.2 198.2,20.3 198.2,30.5 207,35.5 			"/>
			<polygon class="st0" points="189.4,25.4 198.2,30.5 198.2,20.3 			"/>
		</g>
	</g>
</g>
</svg>
